<svg xmlns="http://www.w3.org/2000/svg" width="512" height="512" viewBox="0 0 512 512" version="1.1">
	<path d="M 226.684 16.636 C 214.188 18.443, 193.048 23.852, 180.357 28.488 C 174.936 30.469, 162.850 35.868, 153.500 40.486 C 97.069 68.356, 58.069 109.750, 35.681 165.534 C 4.809 242.460, 13.345 325.700, 59.125 394.141 C 66.873 405.724, 73.305 413.483, 85.390 425.824 C 98.356 439.065, 107.686 446.862, 122 456.418 C 175.356 492.040, 239.390 504.512, 304 491.868 C 329.750 486.829, 365.775 471.997, 387.500 457.490 C 416.010 438.452, 442.651 410.926, 459.595 383 C 474.563 358.330, 486.415 325.538, 491.698 294.177 C 494.225 279.178, 494.183 242.397, 491.620 225.500 C 486.476 191.590, 474.078 156.966, 456.763 128.150 C 439.494 99.412, 412.811 72.802, 380.767 52.361 C 367.733 44.046, 343.489 32.153, 330.364 27.636 C 317.089 23.066, 298.124 18.436, 284.872 16.529 C 271.533 14.610, 240.298 14.667, 226.684 16.636 M 231 37.027 C 190.552 42.618, 146.750 62.151, 114.994 88.761 C 70.593 125.966, 45.083 175.596, 38.026 238.500 C 31.398 297.586, 54.759 366.110, 96.400 409.724 C 162.625 479.087, 267.746 497.181, 354 454.063 C 377.123 442.504, 392.645 431.396, 410.625 413.541 C 435.063 389.273, 451.499 362.138, 463.044 327 C 471.669 300.748, 474.540 280.992, 473.710 253.597 C 473.087 233.041, 471.316 220.242, 466.479 201.357 C 459.074 172.446, 446.313 145.191, 429.598 122.589 C 403.357 87.105, 355.723 55.461, 310.391 43.395 C 289.318 37.786, 282.637 36.880, 259.500 36.495 C 247.400 36.294, 234.575 36.533, 231 37.027 M 292.184 81.527 C 287.331 83.623, 270.688 96.390, 266.430 101.283 C 261.985 106.391, 258.275 113.986, 257.411 119.743 C 257.060 122.084, 256.417 124, 255.982 124 C 255.547 124, 253.806 121.545, 252.112 118.545 C 250.206 115.167, 247.029 111.587, 243.767 109.142 C 235.147 102.679, 206.913 86, 204.594 86 C 201.189 86, 198.304 88.637, 196.479 93.416 C 193.401 101.476, 196.940 106.912, 209.339 113.171 C 212.662 114.848, 217.543 116.863, 220.186 117.648 C 224.129 118.819, 225.713 120.051, 229.004 124.506 C 232.792 129.634, 240.234 135.518, 247.942 139.480 C 257.603 144.447, 262.947 143.435, 271.109 135.094 C 275.082 131.035, 277.232 127.818, 278.477 124.070 C 279.941 119.661, 280.975 118.336, 284.666 116.138 C 301.850 105.907, 305.763 102.184, 306.703 95.177 C 307.945 85.918, 299.783 78.245, 292.184 81.527 M 311.561 128.084 C 296.376 130.159, 281.401 137.080, 266.339 148.984 C 261.477 152.826, 256.758 155.976, 255.850 155.985 C 254.943 155.993, 250.218 152.841, 245.350 148.980 C 229.198 136.170, 211.969 129.374, 193 128.332 C 155.721 126.285, 121.549 147.027, 103.761 182.500 C 84.980 219.954, 86.481 263.711, 107.993 305.907 C 121.435 332.272, 137.773 353.030, 162.090 374.639 C 176.199 387.176, 183.965 393.327, 210 412.586 C 221.275 420.927, 235.662 431.632, 241.972 436.375 C 248.281 441.119, 254.207 445, 255.139 445 C 256.072 445, 260.359 442.281, 264.667 438.957 C 268.975 435.633, 278.529 428.546, 285.899 423.207 C 330.556 390.854, 344.120 379.861, 361.570 361.878 C 373.687 349.389, 380.607 340.808, 389.291 327.500 C 422.806 276.139, 428.758 226.634, 406.724 182.500 C 400.894 170.822, 395.637 163.455, 387.087 154.981 C 366.321 134.400, 338.319 124.428, 311.561 128.084 M 186.282 164.537 C 173.539 167.969, 160.249 176.903, 152.449 187.279 C 129.266 218.119, 129.328 268.603, 152.606 315.413 C 166.698 343.751, 184.613 364.308, 219.500 392.174 C 228.850 399.642, 240.325 409.629, 245 414.366 C 249.675 419.103, 254.186 422.984, 255.023 422.990 C 255.861 422.995, 260.136 419.358, 264.523 414.907 C 268.911 410.456, 281.050 399.928, 291.500 391.512 C 315.356 372.298, 322.462 365.782, 331.861 354.500 C 372.874 305.268, 386.681 241.903, 365.743 199 C 360.360 187.971, 347.036 174.221, 337 169.337 C 316.654 159.438, 298.098 160.935, 272.302 174.558 C 256.026 183.153, 255.699 183.145, 236.973 173.700 C 220.710 165.497, 211.702 162.959, 199.222 163.066 C 194.975 163.102, 189.152 163.764, 186.282 164.537" stroke="none" fill="black" fill-rule="evenodd"/>
</svg>